<?xml version="1.0" encoding="UTF-8" standalone="no"?>
<svg
   width="500"
   height="500"
   viewBox="0 0 441.9192 441.91918"
   class="css-1j8o68f"
   version="1.1"
   id="svg157"
   sodipodi:docname="logo1.svg"
   inkscape:version="1.2 (dc2aedaf03, 2022-05-15)"
   xmlns:inkscape="http://www.inkscape.org/namespaces/inkscape"
   xmlns:sodipodi="http://sodipodi.sourceforge.net/DTD/sodipodi-0.dtd"
   xmlns="http://www.w3.org/2000/svg"
   xmlns:svg="http://www.w3.org/2000/svg">
  <sodipodi:namedview
     id="namedview8"
     pagecolor="#ffffff"
     bordercolor="#000000"
     borderopacity="0.25"
     inkscape:showpageshadow="2"
     inkscape:pageopacity="0.0"
     inkscape:pagecheckerboard="0"
     inkscape:deskcolor="#d1d1d1"
     showgrid="false"
     inkscape:zoom="1.1502984"
     inkscape:cx="-25.210849"
     inkscape:cy="102.58208"
     inkscape:window-width="2240"
     inkscape:window-height="1294"
     inkscape:window-x="-11"
     inkscape:window-y="-11"
     inkscape:window-maximized="1"
     inkscape:current-layer="svg157" />
  <defs
     id="SvgjsDefs1041" />
  <g
     id="SvgjsG1042"
     featurekey="monogramFeature-0"
     transform="matrix(3.3670079,0,0,3.3670079,128.53522,47.896258)"
     fill="#ff5722">
    <path
       d="m 1.2,18 h 6.84 l 8.22,25.86 10.8,-26.46 h 0.72 L 38.64,43.86 46.86,18 H 53.7 L 39.66,60.6 H 38.94 L 27.42,33.12 15.9,60.6 h -0.66 z"
       id="path151"
       style="display:inline" />
  </g>
  <g
     id="SvgjsG1043"
     featurekey="nameFeature-0"
     transform="matrix(2.0169638,0,0,2.0169638,-1.7337009,253.97056)"
     fill="#303841">
    <path
       d="M 8.2422,40 0.8594,11.777 h 6.0938 l 5.5078,21.367 6.3086,-21.367 h 4.9414 l 6.2695,21.367 5.5664,-21.367 h 6.0742 L 34.2383,40 H 26.6992 L 21.2304,22.559 15.7812,40 H 8.2421 Z M 62.500469,16.934 h -10.469 v 6.4063 h 9.2773 v 5.0977 h -9.2773 v 6.3867 h 10.469 v 5.1758 h -16.367 v -28.223 h 16.367 v 5.1563 z m 21.191343,8.164 c 3.1836,0.87891 5.3125,2.9688 5.3125,6.9922 0,4.7656 -2.8906,7.9102 -8.8477,7.9102 h -11.621 v -28.223 h 9.1406 c 6.0938,0 9.2969,2.9297 9.2969,7.7344 0,2.4805 -1.0742,4.5117 -3.2813,5.5859 z m -5.956999,-8.457 h -3.5547 v 6.6406 h 3.8086 c 2.5,0 3.5938,-1.4844 3.5938,-3.3984 0,-1.875 -1.230501,-3.2422 -3.8477,-3.2422 z m 1.328,18.3395 c 3.1641,0 4.2578,-1.6992 4.2578,-3.5352 0,-1.875 -1.0742,-3.6523 -4.375,-3.6523 h -4.7656 v 7.1875 z M 94.218706,40 V 11.777 h 10.215004 c 9.0039,0 13.457,5.6641 13.457,14.102 0,8.457 -4.4531,14.121 -13.457,14.121 z m 5.859404,-5.1758 h 4.0625 c 5.1953,0 7.5781,-3.2422 7.5781,-8.9453 0,-5.7031 -2.3828,-8.9453 -7.5781,-8.9453 h -4.0625 v 17.891 z M 142.26556,40 l -2.0508,-5.8203 h -11.855 L 126.30896,40 h -5.9961 l 10.391,-28.223 h 7.168 L 148.26286,40 h -5.9961 z m -12.187,-10.723 h 8.418 l -4.1992,-11.973 z m 34.9211,11.11363 c -8.3008,0 -14.434,-5.6445 -14.434,-14.512 0,-8.8675 6.1328,-14.492 14.434,-14.492 6.2891,0 11.328,3.2227 13.34,8.5742 l -5.4688,1.9922 c -1.25,-3.2813 -4.2383,-5.1758 -7.8711,-5.1758 -4.8633,0 -8.5938,3.3984 -8.5938,9.1016 0,5.7032 3.7305,9.1211 8.5938,9.1211 3.6328,0 6.6211,-1.9141 7.8711,-5.1953 l 5.4688,1.9922 c -2.0117,5.3516 -7.0508,8.5938 -13.34,8.5938 z M 200.93719,11.777 h 5.8594 V 40 h -5.8594 V 28.398 h -11.934 V 40 h -5.8594 V 11.777 h 5.8594 V 23.3 h 11.934 z M 214.10152,40 V 11.777 h 5.8594 V 40 Z"
       id="path154"
       style="display:inline" />
  </g>
</svg>
