<?xml version="1.0" encoding="UTF-8" standalone="no"?>
<svg
   width="396"
   height="205.1641493924697"
   viewBox="0 0 350 181.33195022061716"
   class="css-1j8o68f"
   style="height: 100px;width: fit-content;"
   version="1.1"
   id="svg157"
   xmlns="http://www.w3.org/2000/svg"
   xmlns:svg="http://www.w3.org/2000/svg">
  <defs
     id="SvgjsDefs1041" />
  <g
     id="SvgjsG1042"
     featurekey="monogramFeature-0"
     transform="matrix(2.6666667461395264,0,0,2.6666667461395264,101.79999987284343,-46.400004069010414)"
     fill="#ff5722">
    <path
       d="M1.2 18 l6.84 0 l8.22 25.86 l10.8 -26.46 l0.72 0 l10.86 26.46 l8.22 -25.86 l6.84 0 l-14.04 42.6 l-0.72 0 l-11.52 -27.48 l-11.52 27.48 l-0.66 0 z"
       id="path151" />
  </g>
  <g
     id="SvgjsG1043"
     featurekey="nameFeature-0"
     transform="matrix(1.597433090209961,0,0,1.597433090209961,-1.372833620388331,116.81062407771496)"
     fill="#303841">
    <path
       d="M8.2422 40 l-7.3828 -28.223 l6.0938 0 l5.5078 21.367 l6.3086 -21.367 l4.9414 0 l6.2695 21.367 l5.5664 -21.367 l6.0742 0 l-7.3828 28.223 l-7.5391 0 l-5.4688 -17.441 l-5.4492 17.441 l-7.5391 0 z M62.500468749999996 16.934 l-10.469 0 l0 6.4063 l9.2773 0 l0 5.0977 l-9.2773 0 l0 6.3867 l10.469 0 l0 5.1758 l-16.367 0 l0 -28.223 l16.367 0 l0 5.1563 z M83.6918125 25.098 c3.1836 0.87891 5.3125 2.9688 5.3125 6.9922 c0 4.7656 -2.8906 7.9102 -8.8477 7.9102 l-11.621 0 l0 -28.223 l9.1406 0 c6.0938 0 9.2969 2.9297 9.2969 7.7344 c0 2.4805 -1.0742 4.5117 -3.2813 5.5859 z M77.7348125 16.641 l-3.5547 0 l0 6.6406 l3.8086 0 c2.5 0 3.5938 -1.4844 3.5938 -3.3984 c0 -1.875 -1.2305 -3.2422 -3.8477 -3.2422 z M79.0628125 34.9805 c3.1641 0 4.2578 -1.6992 4.2578 -3.5352 c0 -1.875 -1.0742 -3.6523 -4.375 -3.6523 l-4.7656 0 l0 7.1875 l4.8828 0 z M94.21870625 40 l0 -28.223 l10.215 0 c9.0039 0 13.457 5.6641 13.457 14.102 c0 8.457 -4.4531 14.121 -13.457 14.121 l-10.215 0 z M100.07810625 34.8242 l4.0625 0 c5.1953 0 7.5781 -3.2422 7.5781 -8.9453 s-2.3828 -8.9453 -7.5781 -8.9453 l-4.0625 0 l0 17.891 z M142.2655625 40 l-2.0508 -5.8203 l-11.855 0 l-2.0508 5.8203 l-5.9961 0 l10.391 -28.223 l7.168 0 l10.391 28.223 l-5.9961 0 z M130.0785625 29.277 l8.418 0 l-4.1992 -11.973 z M164.99965625 40.39063 c-8.3008 0 -14.434 -5.6445 -14.434 -14.512 s6.1328 -14.492 14.434 -14.492 c6.2891 0 11.328 3.2227 13.34 8.5742 l-5.4688 1.9922 c-1.25 -3.2813 -4.2383 -5.1758 -7.8711 -5.1758 c-4.8633 0 -8.5938 3.3984 -8.5938 9.1016 s3.7305 9.1211 8.5938 9.1211 c3.6328 0 6.6211 -1.9141 7.8711 -5.1953 l5.4688 1.9922 c-2.0117 5.3516 -7.0508 8.5938 -13.34 8.5938 z M200.9371875 11.777000000000001 l5.8594 0 l0 28.223 l-5.8594 0 l0 -11.602 l-11.934 0 l0 11.602 l-5.8594 0 l0 -28.223 l5.8594 0 l0 11.523 l11.934 0 l0 -11.523 z M214.10151875 40 l0 -28.223 l5.8594 0 l0 28.223 l-5.8594 0 z"
       id="path154" />
  </g>
</svg>
